<svg xmlns="http://www.w3.org/2000/svg" width="84.318" height="86.969" viewBox="0 0 84.318 86.969">
  <path id="Exclusion_9" data-name="Exclusion 9" d="M42.163,86.969a1.211,1.211,0,0,1-.57-.143l-9.928-5.434a1.193,1.193,0,0,1-.618-1.046V75.407l-10.931-7.3-8.43,4.615a1.2,1.2,0,0,1-1.138,0L.619,67.29A1.19,1.19,0,1,1,1.758,65.2l8.171,4.472V62.43L2.376,58.3v1.668a1.188,1.188,0,1,1-2.376,0V56.289a1.226,1.226,0,0,1,.6-1.034L9.929,49.9V36.254L.62,31.155A1.191,1.191,0,0,1,0,30.11V20.153a1.217,1.217,0,0,1,.6-1.034l9.929-5.7a1.188,1.188,0,0,1,1.182,0l9.928,5.7a1.226,1.226,0,0,1,.6,1.034v2.426l8.83-5.547a1.232,1.232,0,0,1-.024-.182V6.894a1.215,1.215,0,0,1,.6-1.034l9.932-5.7a1.187,1.187,0,0,1,1.181,0l9.929,5.7a1.215,1.215,0,0,1,.6,1.034v9.957a1.126,1.126,0,0,1-.025.182l8.834,5.548V20.153a1.234,1.234,0,0,1,.6-1.034l9.929-5.7a1.191,1.191,0,0,1,1.181,2.068l-8.085,4.642.3.167L73.2,24.23l9.359-5.123a1.2,1.2,0,0,1,1.758,1.046V30.11a1.191,1.191,0,0,1-.618,1.046l-9.311,5.1V49.9l9.331,5.36a1.232,1.232,0,0,1,.6,1.034v9.957A1.19,1.19,0,0,1,83.7,67.29l-9.924,5.433a1.2,1.2,0,0,1-1.139,0l-8.43-4.614-10.93,7.3v4.937a1.192,1.192,0,0,1-.618,1.046l-9.925,5.436A1.211,1.211,0,0,1,42.163,86.969ZM50.9,72.4l-7.552,4.135v7.241L50.9,79.639Zm-17.481,0v7.242l7.553,4.134V76.531ZM42.16,66.06l-7.5,4.3.3.167,7.191,3.937,7.189-3.937.305-.169Zm5.09-7.863a7.648,7.648,0,0,1-3.9,2.036V64l9.331,5.359a1.226,1.226,0,0,1,.6,1.034l0,2.156,8.876-5.927a1.167,1.167,0,0,1-.068-.372V56.863l-5.292-3.736a5.723,5.723,0,0,1-.088.863q-.213,1.07-.422,2.141l0,.011c-.34,1.729-.69,3.513-1.059,5.262a1.927,1.927,0,0,1-1.905,1.413,1.73,1.73,0,0,1-1.1-.374c-.851-.712-1.7-1.449-2.531-2.162-.8-.688-1.618-1.4-2.437-2.084ZM27.527,53.126l-5.291,3.737v9.382a1.181,1.181,0,0,1-.068.372l8.872,5.928V70.39a1.219,1.219,0,0,1,.6-1.034L40.972,64V60.245a7.767,7.767,0,0,1-3.93-2c-.723.555-1.426,1.188-2.106,1.8-.448.4-.909.818-1.373,1.208-.185.15-.364.318-.536.48a4.614,4.614,0,0,1-1.169.886,1.746,1.746,0,0,1-.694.14,1.954,1.954,0,0,1-1.915-1.479c-.2-.9-.4-1.8-.6-2.68-.336-1.49-.683-3.03-1.01-4.55A5.7,5.7,0,0,1,27.527,53.126ZM81.941,58.3,74.389,62.43v7.241l7.553-4.134Zm-17.48,0v7.241l7.553,4.134V62.43L64.462,58.3Zm-44.6,0L12.3,62.43v7.241l7.552-4.134ZM73.2,51.959h0l-7.494,4.3.3.167L73.2,60.366l7.191-3.937.3-.167-7.5-4.3Zm-62.085,0-7.5,4.3.3.166,7.191,3.937,7.19-3.936.3-.167ZM64.144,31.943l-12.72,8.12a23.681,23.681,0,0,1,.365,5.923c.41.345.832.69,1.24,1.023.621.508,1.264,1.033,1.88,1.569a5.65,5.65,0,0,1,.8.913l7.667,5.367L72.014,49.9V36.254l-7.871-4.311Zm-43.97,0L12.3,36.254V49.9l8.64,4.963,7.339-4.879a5.751,5.751,0,0,1,1.25-1.558c.8-.671,1.647-1.367,2.755-2.259.188-.1.17-.293.152-.48a1.275,1.275,0,0,1-.009-.2,23.4,23.4,0,0,1,.392-5.467L20.174,31.945ZM40.783,47.359a1.823,1.823,0,0,0-.922.226,1.5,1.5,0,0,0-.6.646,2.177,2.177,0,0,0-.209.974,1.946,1.946,0,0,0,.431,1.355,1.606,1.606,0,0,0,1.239.468,2.491,2.491,0,0,0,1.011-.2v-.815c-.155.063-.306.116-.447.158a1.6,1.6,0,0,1-.459.066c-.52,0-.783-.347-.783-1.03a1.362,1.362,0,0,1,.193-.777.618.618,0,0,1,.537-.283,1.393,1.393,0,0,1,.425.064,3.431,3.431,0,0,1,.4.156l.3-.759A2.545,2.545,0,0,0,40.783,47.359Zm2.453,1.106h.022l1.3,2.515h1.264V47.41h-.86v1.614c0,.216.011.5.034.867h-.014l-1.3-2.48h-1.26V50.98h.854V49.371c0-.207-.015-.512-.046-.905ZM35.968,47.41V48.2h.872V50.98H37.8V48.2h.869V47.41ZM42.1,35.289a4.172,4.172,0,0,0-2.978,7.064,4.16,4.16,0,0,0,5.862.127,4.169,4.169,0,0,0-2.444-7.166,3.777,3.777,0,0,0-.438-.025ZM33,18.632,22.234,25.391v4.718a1.2,1.2,0,0,1-.041.306l11.216,7.148A30.283,30.283,0,0,1,37.146,29.5a21.473,21.473,0,0,1,3.826-4.536V23Zm18.317,0-7.97,4.364v2.04A21.327,21.327,0,0,1,47.023,29.4,30.167,30.167,0,0,1,50.8,37.462l11.327-7.047a1.166,1.166,0,0,1-.041-.306V25.391Zm30.623,3.533L74.39,26.3v7.241L81.941,29.4Zm-17.48,0V29.4l7.551,4.134V26.3l-7.551-4.134Zm-44.6,0L12.3,26.3v7.241L19.857,29.4Zm-17.479,0V29.4L9.93,33.537V26.3L2.378,22.162Zm8.739-6.339-7.5,4.3.3.167,7.191,3.936,7.19-3.936.3-.167ZM50.9,8.9l-7.552,4.135v7.24L50.9,16.143Zm-17.481,0v7.241l7.553,4.135v-7.24ZM42.16,2.565l-7.494,4.3,7.166,3.923.328.18.329-.18L49.654,6.87Zm-.452,39.37h-.5V41.1c-.129,0-.247,0-.358,0H40.2l.1-.6.273,0a.723.723,0,0,0,.091,0,.178.178,0,0,0,.188-.167V38.074a.258.258,0,0,0-.288-.22.426.426,0,0,0-.091,0c-.108,0-.272,0-.272,0v-.535h.691l.093,0,.139,0,.086,0v-.824h.5V37.3l.111,0,.288,0v-.8h.5v.824c.78.068,1.166.339,1.216.851a.779.779,0,0,1-.429.843.852.852,0,0,1,.718,1.038c-.079.854-.77,1.011-1.5,1.053v.832h-.5v-.821H42.1c-.147,0-.271,0-.393,0v.825Zm.013-1.433h.254a2.54,2.54,0,0,0,.741-.087c.27-.088.407-.245.407-.467,0-.557-.807-.557-1.073-.557-.076,0-.147,0-.208,0l-.122,0v1.1ZM42,37.886l-.175,0-.1,0v1h.217a1.941,1.941,0,0,0,.616-.079.435.435,0,0,0,.337-.424C42.89,37.886,42.218,37.886,42,37.886Zm36.847-19a1.185,1.185,0,0,1-.589-.158L76.9,17.946a1.192,1.192,0,0,1,.59-2.226,1.177,1.177,0,0,1,.59.159l1.358.778a1.192,1.192,0,0,1-.592,2.226Z" transform="translate(0 0)" fill="#fff"/>
</svg>
