<svg xmlns="http://www.w3.org/2000/svg" width="63.951" height="66" viewBox="0 0 63.951 66">
  <g id="Group_741" data-name="Group 741">
    <path id="Exclusion_7" data-name="Exclusion 7" d="M31.547,65.891l-7.53-4.124a.9.9,0,0,1-.469-.794V57.226l-8.29-5.538-6.394,3.5a.913.913,0,0,1-.864,0L.47,51.066a.9.9,0,0,1,.863-1.587l6.2,3.394v-5.5L1.8,44.24v1.266a.9.9,0,1,1-1.8,0v-2.79a.926.926,0,0,1,.453-.785L7.53,37.865V27.512L.47,23.643A.9.9,0,0,1,0,22.85V15.294a.931.931,0,0,1,.452-.785l7.531-4.327a.9.9,0,0,1,.9,0l7.53,4.327a.925.925,0,0,1,.453.785v1.841l6.7-4.209a.887.887,0,0,1-.019-.138V5.232a.927.927,0,0,1,.453-.785L31.528.12a.9.9,0,0,1,.9,0l7.53,4.327a.927.927,0,0,1,.453.785v7.556a.887.887,0,0,1-.019.137l6.7,4.21V15.294a.931.931,0,0,1,.453-.785l7.53-4.327a.9.9,0,0,1,.9,1.569l-6.132,3.523.231.127,5.454,2.987,7.1-3.888a.912.912,0,0,1,1.333.794V22.85a.9.9,0,0,1-.469.794l-7.061,3.869V37.865L63.5,41.932a.931.931,0,0,1,.453.785v7.556a.9.9,0,0,1-.469.794L55.955,55.19a.913.913,0,0,1-.864,0l-6.394-3.5-8.29,5.538v3.747a.9.9,0,0,1-.469.794l-7.527,4.125a.913.913,0,0,1-.864,0Zm1.33-7.812v5.5L38.6,60.438v-5.5Zm-7.53-1.342v3.7l5.728,3.137v-5.5l-5.728-3.138Zm.945-3.339.231.127,5.454,2.987,5.453-2.987.232-.129-5.684-3.264Zm6.585-7.587v2.755l7.077,4.067a.925.925,0,0,1,.453.785l0,1.636,6.732-4.5a.9.9,0,0,1-.051-.283v-7.12l-4.76-2.642ZM16.864,43.153v7.119a.9.9,0,0,1-.051.283l6.729,4.5V53.418a.931.931,0,0,1,.453-.785l7.08-4.067V45.811l-9.874-5.3Zm32.027,6.584,5.728,3.137v-5.5L48.891,44.24ZM9.332,47.378v5.5l5.728-3.137v-5.5Zm47.088,0v5.5l5.728-3.137v-5.5ZM49.835,42.7l.231.127,5.454,2.987,5.454-2.987.23-.127-5.684-3.266Zm-47.088,0,.231.126,5.454,2.987,5.454-2.987.231-.127L8.431,39.431ZM20.936,26.741V39.292l11.039,6.215L42.92,39.431l.3-12.69L31.976,19.956Zm22.811.771v11.6l4.318,2.518,6.554-3.766V27.512l-5.97-3.271Zm-34.416,0V37.865l6.553,3.766,4.106-2.339V27.063L15.3,24.243ZM32.877,17.449v2.506l10.043,5.9c-.021-.076,4.169-2.927,4.169-3.006v-3.58l-8.167-5.131Zm23.544,2.506v5.5l5.727-3.137v-5.5Zm-7.53,2.358,5.727,3.137v-5.5l-5.727-3.137ZM16.863,19.269v3.58a.906.906,0,0,1-.031.232l4.1,2.369,10.138-5.5v-2.5L25.03,14.139Zm-7.53.686v5.5l5.728-3.137v-5.5ZM1.8,22.314l5.728,3.137v-5.5L1.8,16.818Zm.944-7.039.231.127,5.454,2.987L13.885,15.4l.231-.127L8.431,12.008Zm30.13-5.379v5.494L38.6,12.251V6.757Zm-7.53,2.356,5.728,3.138V9.895L25.346,6.756Zm.945-7.039L31.726,8.19l.249.136.249-.136,5.435-2.977L31.976,1.946Zm33.06,9-1.03-.591a.906.906,0,0,1-.334-1.234h0a.9.9,0,0,1,1.23-.335l1.03.591a.9.9,0,0,1-.449,1.689A.894.894,0,0,1,59.352,14.209Z" transform="translate(0 0)" fill="#fff"/>
  </g>
  <g id="Group_742" data-name="Group 742" transform="translate(19.783 18.929)">
    <path id="Path_642" data-name="Path 642" d="M0-166.107,12.168-173.1l12.216,6.988v14.09l-12.216,7.064s-2.775-2.682,0-2.682,8.775-3.052,10.067-5.29,1.117-10.543.3-12.054-7.823-6.014-10.363-6.014-9.389,4.34-10.3,6.014-.943,10.1.187,12.054,7.336,5.29,10.116,5.29,0,2.682,0,2.682L0-152.018Z" transform="translate(0 173.096)" fill="#fff"/>
    <path id="Path_645" data-name="Path 645" d="M0-60.654l1.292-.789,1.81,6v-7.328l1.527-.916V-47.7l-1.12-.662-2.217-8.32v7L0-50.349Z" transform="translate(2.705 69.916)" fill="#fff"/>
    <path id="Path_644" data-name="Path 644" d="M0-137.278l3.509-2.036,4.523,2.6-.814,1.323-3.709-2.137-2.042,1.17v7.023H6.836v1.756H1.468v8.956L0-119.543Z" transform="translate(8.639 142.494)" fill="#fff"/>
    <path id="Path_643" data-name="Path 643" d="M-38.461-6.347l-1.883-1.221.738-1.374,4.834,3.155v1.73l-2.112-1.476V5.586l-1.578,1.043Z" transform="translate(56.965 15.125)" fill="#fff"/>
  </g>
</svg>
