<svg xmlns="http://www.w3.org/2000/svg" width="49.954" height="66" viewBox="0 0 49.954 66">
  <path id="Exclusion_32" data-name="Exclusion 32" d="M44.015,66a2.954,2.954,0,0,1-1.876-.637C40.7,64.156,39.25,62.906,37.851,61.7c-1.368-1.182-2.781-2.4-4.189-3.583a12.649,12.649,0,0,1-8.024,3.635c-.253.018-.511.027-.766.027A12.842,12.842,0,0,1,16.245,58.2c-1.231.946-2.428,2.023-3.586,3.066-.765.689-1.556,1.4-2.349,2.069-.317.256-.621.542-.916.82A7.853,7.853,0,0,1,7.4,65.668a2.976,2.976,0,0,1-1.184.239,3.333,3.333,0,0,1-3.266-2.525c-.343-1.549-.7-3.121-1.041-4.642C1.34,56.22.752,53.614.2,51.043a10.212,10.212,0,0,1,3.232-9.617c1.344-1.132,2.793-2.322,4.7-3.856.322-.169.29-.5.259-.82a2.193,2.193,0,0,1-.016-.34,41.53,41.53,0,0,1,1.888-14.252,52.066,52.066,0,0,1,6.16-13.023C19,5.389,21.423,2.116,24.9,0c3.445,2.071,5.926,5.419,8.373,8.958a51.527,51.527,0,0,1,6.37,13.51,41.721,41.721,0,0,1,1.764,14.8c.7.591,1.426,1.183,2.125,1.755,1.058.866,2.152,1.76,3.2,2.673a10.014,10.014,0,0,1,2.693,4.229,10.251,10.251,0,0,1,.369,5.007c-.239,1.2-.48,2.43-.712,3.615-.582,2.967-1.184,6.034-1.818,9.042A3.288,3.288,0,0,1,44.015,66ZM24.462,41.294a4.011,4.011,0,0,0-2.028.5,3.3,3.3,0,0,0-1.321,1.421,4.778,4.778,0,0,0-.459,2.143,4.273,4.273,0,0,0,.948,2.981,3.535,3.535,0,0,0,2.726,1.031,5.469,5.469,0,0,0,2.224-.435V47.137a9.874,9.874,0,0,1-.983.349,3.53,3.53,0,0,1-1.01.145c-1.144,0-1.724-.762-1.724-2.266a3.014,3.014,0,0,1,.424-1.711,1.361,1.361,0,0,1,1.182-.62,3.066,3.066,0,0,1,.935.14,7.527,7.527,0,0,1,.87.344l.65-1.67A5.614,5.614,0,0,0,24.462,41.294Zm5.4,2.434h.049l2.868,5.532h2.782V41.407H33.668v3.55c0,.478.025,1.12.076,1.907h-.032l-2.857-5.457H28.083V49.26h1.879V45.72c0-.463-.034-1.133-.1-1.992Zm-15.989-2.32v1.734h1.917V49.26h2.121V43.141h1.912V41.407Zm11.012-22.4A7.121,7.121,0,0,0,19.8,31.07a7.1,7.1,0,0,0,10,.215A7.117,7.117,0,0,0,25.63,19.054,6.519,6.519,0,0,0,24.882,19.011Zm.1,10.4c-1.746,0-3.167-.474-3.167-1.056l.234-1.871,2.392.735a1.862,1.862,0,0,0,.543.081,1.84,1.84,0,0,0,.539-.081l2.392-.735.233,1.871C28.144,28.936,26.724,29.409,24.978,29.409Zm-3.76,0h-.925a.264.264,0,0,1-.257-.321l.421-1.895a.508.508,0,0,1,.042-.874,1.306,1.306,0,0,1,.294-.774l-.8-.247a.388.388,0,0,1,0-.751l4.6-1.414a1.328,1.328,0,0,1,.772,0l4.6,1.414a.388.388,0,0,1,0,.751l-4.6,1.414a1.3,1.3,0,0,1-.384.058,1.338,1.338,0,0,1-.388-.058l-3.226-.991a.779.779,0,0,0-.341.606.507.507,0,0,1,.03.866l.421,1.895a.264.264,0,0,1-.258.321Z" transform="translate(0)" fill="#fff"/>
</svg>
